<mxfile host="app.diagrams.net" modified="2021-11-05T02:51:56.356Z" agent="5.0 (Windows NT 10.0; Win64; x64) AppleWebKit/537.36 (KHTML, like Gecko) Chrome/94.0.4606.61 Safari/537.36" etag="Z2drS3Kl2JhyXPUCT_o-" version="15.6.6" type="github">
  <diagram id="-M7pOZYd93I_X0vTmgFy" name="Page-1">
    <mxGraphModel dx="1038" dy="491" grid="1" gridSize="10" guides="1" tooltips="1" connect="1" arrows="1" fold="1" page="1" pageScale="1" pageWidth="1200" pageHeight="1920" math="0" shadow="0">
      <root>
        <mxCell id="0" />
        <mxCell id="1" parent="0" />
        <mxCell id="_Gb2zwQFIGP6bVLUXY2j-1" value="&lt;font style=&quot;font-size: 25px&quot;&gt;ZooKeeper&lt;/font&gt;" style="whiteSpace=wrap;html=1;rounded=1;" vertex="1" parent="1">
          <mxGeometry x="747" y="50" width="160" height="60" as="geometry" />
        </mxCell>
        <mxCell id="_Gb2zwQFIGP6bVLUXY2j-2" value="&lt;font style=&quot;font-size: 20px&quot;&gt;admin&lt;/font&gt;" style="whiteSpace=wrap;html=1;rounded=1;" vertex="1" parent="1">
          <mxGeometry x="40" y="190" width="87" height="40" as="geometry" />
        </mxCell>
        <mxCell id="_Gb2zwQFIGP6bVLUXY2j-3" value="" style="endArrow=classic;html=1;exitX=0.5;exitY=1;exitDx=0;exitDy=0;entryX=0.5;entryY=0;entryDx=0;entryDy=0;shadow=0;" edge="1" parent="1" source="_Gb2zwQFIGP6bVLUXY2j-1" target="_Gb2zwQFIGP6bVLUXY2j-2">
          <mxGeometry width="50" height="50" relative="1" as="geometry">
            <mxPoint x="390" y="290" as="sourcePoint" />
            <mxPoint x="440" y="240" as="targetPoint" />
          </mxGeometry>
        </mxCell>
        <mxCell id="_Gb2zwQFIGP6bVLUXY2j-4" value="&lt;font style=&quot;font-size: 20px&quot;&gt;delete_topics&lt;/font&gt;" style="whiteSpace=wrap;html=1;rounded=1;" vertex="1" parent="1">
          <mxGeometry x="18.5" y="260" width="130" height="40" as="geometry" />
        </mxCell>
        <mxCell id="_Gb2zwQFIGP6bVLUXY2j-5" value="" style="endArrow=classic;html=1;exitX=0.5;exitY=1;exitDx=0;exitDy=0;entryX=0.5;entryY=0;entryDx=0;entryDy=0;shadow=0;" edge="1" parent="1" source="_Gb2zwQFIGP6bVLUXY2j-2" target="_Gb2zwQFIGP6bVLUXY2j-4">
          <mxGeometry width="50" height="50" relative="1" as="geometry">
            <mxPoint x="399.9999999999999" y="160.00000000000006" as="sourcePoint" />
            <mxPoint x="170" y="199.99999999999994" as="targetPoint" />
          </mxGeometry>
        </mxCell>
        <mxCell id="_Gb2zwQFIGP6bVLUXY2j-6" value="&lt;font style=&quot;font-size: 20px&quot;&gt;brokers&lt;/font&gt;" style="whiteSpace=wrap;html=1;rounded=1;" vertex="1" parent="1">
          <mxGeometry x="338" y="190" width="90" height="40" as="geometry" />
        </mxCell>
        <mxCell id="_Gb2zwQFIGP6bVLUXY2j-7" value="" style="endArrow=classic;html=1;exitX=0.5;exitY=1;exitDx=0;exitDy=0;entryX=0.5;entryY=0;entryDx=0;entryDy=0;shadow=0;" edge="1" parent="1" source="_Gb2zwQFIGP6bVLUXY2j-1" target="_Gb2zwQFIGP6bVLUXY2j-6">
          <mxGeometry width="50" height="50" relative="1" as="geometry">
            <mxPoint x="400" y="160" as="sourcePoint" />
            <mxPoint x="170" y="200" as="targetPoint" />
          </mxGeometry>
        </mxCell>
        <mxCell id="_Gb2zwQFIGP6bVLUXY2j-8" value="&lt;font style=&quot;font-size: 20px&quot;&gt;topics&lt;/font&gt;" style="whiteSpace=wrap;html=1;rounded=1;" vertex="1" parent="1">
          <mxGeometry x="510" y="260" width="76" height="40" as="geometry" />
        </mxCell>
        <mxCell id="_Gb2zwQFIGP6bVLUXY2j-9" value="" style="endArrow=classic;html=1;exitX=0.5;exitY=1;exitDx=0;exitDy=0;entryX=0.5;entryY=0;entryDx=0;entryDy=0;shadow=0;" edge="1" parent="1" source="_Gb2zwQFIGP6bVLUXY2j-6" target="_Gb2zwQFIGP6bVLUXY2j-14">
          <mxGeometry width="50" height="50" relative="1" as="geometry">
            <mxPoint x="243" y="230.0000000000001" as="sourcePoint" />
            <mxPoint x="296" y="249.9999999999999" as="targetPoint" />
          </mxGeometry>
        </mxCell>
        <mxCell id="_Gb2zwQFIGP6bVLUXY2j-10" value="" style="endArrow=classic;html=1;exitX=0.5;exitY=1;exitDx=0;exitDy=0;entryX=0.5;entryY=0;entryDx=0;entryDy=0;shadow=0;" edge="1" parent="1" source="_Gb2zwQFIGP6bVLUXY2j-6" target="_Gb2zwQFIGP6bVLUXY2j-8">
          <mxGeometry width="50" height="50" relative="1" as="geometry">
            <mxPoint x="373" y="230.0000000000001" as="sourcePoint" />
            <mxPoint x="318" y="259.9999999999999" as="targetPoint" />
          </mxGeometry>
        </mxCell>
        <mxCell id="_Gb2zwQFIGP6bVLUXY2j-11" value="" style="endArrow=classic;html=1;entryX=0.5;entryY=0;entryDx=0;entryDy=0;shadow=0;exitX=0.5;exitY=1;exitDx=0;exitDy=0;" edge="1" parent="1" source="_Gb2zwQFIGP6bVLUXY2j-6" target="_Gb2zwQFIGP6bVLUXY2j-15">
          <mxGeometry width="50" height="50" relative="1" as="geometry">
            <mxPoint x="355.17" y="240" as="sourcePoint" />
            <mxPoint x="360.83000000000004" y="269.9999999999999" as="targetPoint" />
          </mxGeometry>
        </mxCell>
        <mxCell id="_Gb2zwQFIGP6bVLUXY2j-12" value="&lt;font style=&quot;font-size: 20px&quot;&gt;1&lt;/font&gt;" style="whiteSpace=wrap;html=1;rounded=1;" vertex="1" parent="1">
          <mxGeometry x="160" y="330" width="40" height="30" as="geometry" />
        </mxCell>
        <mxCell id="_Gb2zwQFIGP6bVLUXY2j-13" value="&lt;font style=&quot;font-size: 11px&quot;&gt;集群内Broker信息&lt;br&gt;(临时Znode)&lt;/font&gt;" style="text;html=1;strokeColor=none;fillColor=none;align=center;verticalAlign=middle;whiteSpace=wrap;rounded=0;" vertex="1" parent="1">
          <mxGeometry x="168.5" y="364" width="129" height="40" as="geometry" />
        </mxCell>
        <mxCell id="_Gb2zwQFIGP6bVLUXY2j-14" value="&lt;font style=&quot;font-size: 20px&quot;&gt;ids&lt;br&gt;&lt;/font&gt;" style="whiteSpace=wrap;html=1;rounded=1;" vertex="1" parent="1">
          <mxGeometry x="195" y="260" width="76" height="40" as="geometry" />
        </mxCell>
        <mxCell id="_Gb2zwQFIGP6bVLUXY2j-15" value="&lt;font style=&quot;font-size: 20px&quot;&gt;seqid&lt;/font&gt;" style="whiteSpace=wrap;html=1;rounded=1;" vertex="1" parent="1">
          <mxGeometry x="345" y="260" width="76" height="40" as="geometry" />
        </mxCell>
        <mxCell id="_Gb2zwQFIGP6bVLUXY2j-16" value="&lt;span style=&quot;font-size: 20px&quot;&gt;...&lt;/span&gt;" style="whiteSpace=wrap;html=1;rounded=1;" vertex="1" parent="1">
          <mxGeometry x="213" y="330" width="40" height="30" as="geometry" />
        </mxCell>
        <mxCell id="_Gb2zwQFIGP6bVLUXY2j-17" value="&lt;font style=&quot;font-size: 20px&quot;&gt;N&lt;/font&gt;" style="whiteSpace=wrap;html=1;rounded=1;" vertex="1" parent="1">
          <mxGeometry x="266" y="330" width="40" height="30" as="geometry" />
        </mxCell>
        <mxCell id="_Gb2zwQFIGP6bVLUXY2j-18" value="" style="endArrow=classic;html=1;exitX=0.5;exitY=1;exitDx=0;exitDy=0;entryX=0.5;entryY=0;entryDx=0;entryDy=0;shadow=0;" edge="1" parent="1" source="_Gb2zwQFIGP6bVLUXY2j-14" target="_Gb2zwQFIGP6bVLUXY2j-12">
          <mxGeometry width="50" height="50" relative="1" as="geometry">
            <mxPoint x="328" y="240" as="sourcePoint" />
            <mxPoint x="243" y="270" as="targetPoint" />
          </mxGeometry>
        </mxCell>
        <mxCell id="_Gb2zwQFIGP6bVLUXY2j-19" value="" style="endArrow=classic;html=1;entryX=0.5;entryY=0;entryDx=0;entryDy=0;shadow=0;exitX=0.5;exitY=1;exitDx=0;exitDy=0;" edge="1" parent="1" source="_Gb2zwQFIGP6bVLUXY2j-14" target="_Gb2zwQFIGP6bVLUXY2j-16">
          <mxGeometry width="50" height="50" relative="1" as="geometry">
            <mxPoint x="243" y="310" as="sourcePoint" />
            <mxPoint x="190" y="340" as="targetPoint" />
          </mxGeometry>
        </mxCell>
        <mxCell id="_Gb2zwQFIGP6bVLUXY2j-20" value="" style="endArrow=classic;html=1;entryX=0.5;entryY=0;entryDx=0;entryDy=0;shadow=0;" edge="1" parent="1" target="_Gb2zwQFIGP6bVLUXY2j-17">
          <mxGeometry width="50" height="50" relative="1" as="geometry">
            <mxPoint x="233" y="300" as="sourcePoint" />
            <mxPoint x="243" y="340" as="targetPoint" />
          </mxGeometry>
        </mxCell>
        <mxCell id="_Gb2zwQFIGP6bVLUXY2j-21" value="&lt;font style=&quot;font-size: 11px&quot;&gt;将元数据dataVersion作为BrokerID的自动生成器&lt;br&gt;(永久Znode)&lt;/font&gt;" style="text;html=1;strokeColor=none;fillColor=none;align=center;verticalAlign=middle;whiteSpace=wrap;rounded=0;" vertex="1" parent="1">
          <mxGeometry x="306" y="302" width="154" height="50" as="geometry" />
        </mxCell>
        <mxCell id="_Gb2zwQFIGP6bVLUXY2j-22" value="&lt;font style=&quot;font-size: 20px&quot;&gt;__consumer__offsets&lt;/font&gt;" style="whiteSpace=wrap;html=1;rounded=1;" vertex="1" parent="1">
          <mxGeometry x="310" y="370" width="220" height="40" as="geometry" />
        </mxCell>
        <mxCell id="_Gb2zwQFIGP6bVLUXY2j-23" value="" style="endArrow=classic;html=1;exitX=0.5;exitY=1;exitDx=0;exitDy=0;shadow=0;entryX=0.5;entryY=0;entryDx=0;entryDy=0;" edge="1" parent="1" source="_Gb2zwQFIGP6bVLUXY2j-8" target="_Gb2zwQFIGP6bVLUXY2j-22">
          <mxGeometry width="50" height="50" relative="1" as="geometry">
            <mxPoint x="393" y="240" as="sourcePoint" />
            <mxPoint x="243" y="270" as="targetPoint" />
          </mxGeometry>
        </mxCell>
        <mxCell id="_Gb2zwQFIGP6bVLUXY2j-24" value="&lt;font style=&quot;font-size: 11px&quot;&gt;内部Topic，记录Consumer的一些元数据信息&lt;br&gt;(永久Znode)&lt;/font&gt;" style="text;html=1;strokeColor=none;fillColor=none;align=center;verticalAlign=middle;whiteSpace=wrap;rounded=0;" vertex="1" parent="1">
          <mxGeometry x="324" y="410" width="192" height="50" as="geometry" />
        </mxCell>
      </root>
    </mxGraphModel>
  </diagram>
</mxfile>
